<?xml version="1.0" encoding="UTF-8" standalone="no"?>
<!-- Created with Inkscape (http://www.inkscape.org/) -->

<svg
   xmlns:dc="http://purl.org/dc/elements/1.1/"
   xmlns:cc="http://creativecommons.org/ns#"
   xmlns:rdf="http://www.w3.org/1999/02/22-rdf-syntax-ns#"
   xmlns:svg="http://www.w3.org/2000/svg"
   xmlns="http://www.w3.org/2000/svg"
   xmlns:sodipodi="http://sodipodi.sourceforge.net/DTD/sodipodi-0.dtd"
   xmlns:inkscape="http://www.inkscape.org/namespaces/inkscape"
   width="95.928711"
   height="41.794392"
   viewBox="0 0 25.381137 11.058099"
   version="1.1"
   id="svg22757"
   inkscape:version="0.92.0 r15299"
   sodipodi:docname="chep.svg">
  <defs
     id="defs22751">
    <clipPath
       id="clipPath18452"
       clipPathUnits="userSpaceOnUse">
      <path
         inkscape:connector-curvature="0"
         id="path18450"
         d="m 47.168,740.409 h 150.787 v 101.48 H 47.168 Z" />
    </clipPath>
    <clipPath
       id="clipPath18436"
       clipPathUnits="userSpaceOnUse">
      <path
         inkscape:connector-curvature="0"
         id="path18434"
         d="m 129.314,740.409 h 68.641 v 39.853 h -68.641 z" />
    </clipPath>
    <clipPath
       id="clipPath18424"
       clipPathUnits="userSpaceOnUse">
      <path
         inkscape:connector-curvature="0"
         id="path18422"
         d="m 47.168,740.409 h 82.333 v 66.485 H 47.168 Z" />
    </clipPath>
    <clipPath
       id="clipPath18412"
       clipPathUnits="userSpaceOnUse">
      <path
         inkscape:connector-curvature="0"
         id="path18410"
         d="m 129.314,780.075 h 68.641 v 61.815 h -68.641 z" />
    </clipPath>
    <clipPath
       id="clipPath18400"
       clipPathUnits="userSpaceOnUse">
      <path
         inkscape:connector-curvature="0"
         id="path18398"
         d="m 47.168,806.706 h 82.333 V 841.89 H 47.168 Z" />
    </clipPath>
  </defs>
  <sodipodi:namedview
     id="base"
     pagecolor="#ffffff"
     bordercolor="#666666"
     borderopacity="1.0"
     inkscape:pageopacity="0.0"
     inkscape:pageshadow="2"
     inkscape:zoom="3.9391611"
     inkscape:cx="47.464346"
     inkscape:cy="20.397193"
     inkscape:document-units="mm"
     inkscape:current-layer="layer1"
     showgrid="false"
     fit-margin-top="0"
     fit-margin-left="0"
     fit-margin-right="0"
     fit-margin-bottom="0"
     units="px"
     inkscape:window-width="1280"
     inkscape:window-height="744"
     inkscape:window-x="-4"
     inkscape:window-y="-4"
     inkscape:window-maximized="1" />
  <metadata
     id="metadata22754">
    <rdf:RDF>
      <cc:Work
         rdf:about="">
        <dc:format>image/svg+xml</dc:format>
        <dc:type
           rdf:resource="http://purl.org/dc/dcmitype/StillImage" />
        <dc:title></dc:title>
      </cc:Work>
    </rdf:RDF>
  </metadata>
  <g
     inkscape:label="Layer 1"
     inkscape:groupmode="layer"
     id="layer1"
     transform="translate(-101.59053,-131.07676)">
    <g
       id="g22955"
       transform="matrix(0.35277777,0,0,-0.35277777,124.84795,131.21491)"
       style="fill:#1776b7;fill-opacity:1">
      <path
         d="m 0,0 h -13.01 l -3.824,-14.269 h 4.278 l 2.82,10.525 c 0.056,0.194 0.256,0.351 0.45,0.351 h 6.236 c 0.196,0 0.314,-0.161 0.262,-0.357 L -3.6,-6.777 c -0.052,-0.197 -0.256,-0.357 -0.451,-0.357 h -4.608 l -0.86,-3.211 h 6.747 c 1.176,0 2.397,0.962 2.712,2.138 l 1.627,6.068 C 1.882,-0.963 1.177,0 0,0"
         style="fill:#1776b7;fill-opacity:1;fill-rule:nonzero;stroke:none"
         id="path22957"
         inkscape:connector-curvature="0" />
    </g>
    <g
       id="g22959"
       transform="matrix(0.35277777,0,0,-0.35277777,112.23533,131.21491)"
       style="fill:#1776b7;fill-opacity:1">
      <path
         d="M 0,0 -1.338,-4.993 C -1.391,-5.189 -1.595,-5.349 -1.79,-5.349 h -5.522 c -0.196,0 -0.313,0.16 -0.262,0.356 L -6.235,0 h -4.363 l -3.822,-14.264 h 4.363 l 1.338,4.993 c 0.052,0.197 0.255,0.358 0.452,0.358 h 5.521 c 0.197,0 0.314,-0.161 0.261,-0.358 l -1.337,-4.993 H 0.552 L 4.373,0 Z"
         style="fill:#1776b7;fill-opacity:1;fill-rule:nonzero;stroke:none"
         id="path22961"
         inkscape:connector-curvature="0" />
    </g>
    <g
       id="g22963"
       transform="matrix(0.35277777,0,0,-0.35277777,115.13968,134.92384)"
       style="fill:#1776b7;fill-opacity:1">
      <path
         d="M 0,0 0.407,1.515 C 0.459,1.711 0.662,1.872 0.858,1.872 H 7.373 L 8.185,4.903 H 1.671 C 1.474,4.903 1.357,5.064 1.41,5.26 l 0.406,1.514 c 0.052,0.197 0.256,0.357 0.452,0.357 h 9.014 l 0.907,3.382 H -1.359 L -5.184,-3.756 H 8.365 l 0.911,3.4 H 0.261 C 0.065,-0.356 -0.052,-0.196 0,0"
         style="fill:#1776b7;fill-opacity:1;fill-rule:nonzero;stroke:none"
         id="path22965"
         inkscape:connector-curvature="0" />
    </g>
    <g
       id="g22967"
       transform="matrix(0.35277777,0,0,-0.35277777,103.46291,134.73648)"
       style="fill:#1776b7;fill-opacity:1">
      <path
         d="M 0,0 1.532,5.718 C 1.584,5.914 1.788,6.074 1.985,6.074 H 10.9 l 1.052,3.925 H 0.537 C -0.64,9.999 -1.861,9.037 -2.176,7.86 L -4.857,-2.147 c -0.316,-1.177 0.389,-2.14 1.566,-2.14 H 8.124 l 1.053,3.931 H 0.261 C 0.065,-0.356 -0.053,-0.196 0,0"
         style="fill:#1776b7;fill-opacity:1;fill-rule:nonzero;stroke:none"
         id="path22969"
         inkscape:connector-curvature="0" />
    </g>
    <path
       inkscape:connector-curvature="0"
       id="path22973"
       style="fill:#1776b7;fill-opacity:1;fill-rule:nonzero;stroke:none;stroke-width:0.35277778"
       d="m 103.49935,141.28943 h -0.20567 l -0.2286,-0.60078 h -0.89147 l -0.22542,0.60078 h -0.21167 l 0.81245,-1.99143 h 0.15769 z m -0.49071,-0.75318 -0.38383,-1.01565 -0.38911,1.01565 z" />
    <g
       id="g22983"
       transform="matrix(0.35277777,0,0,-0.35277777,105.29185,139.29814)"
       style="fill:#1776b7;fill-opacity:1">
      <path
         d="m 0,0 c 0.432,0 0.976,-0.008 1.391,-0.375 0.272,-0.24 0.44,-0.607 0.44,-1.031 0,-0.825 -0.6,-1.127 -0.959,-1.192 -0.017,-0.008 -0.033,-0.008 -0.049,-0.008 0.016,-0.007 0.04,-0.015 0.065,-0.015 0.703,-0.16 1.135,-0.656 1.135,-1.424 0,-0.607 -0.28,-1.391 -1.319,-1.559 C 0.439,-5.645 0.232,-5.645 -0.664,-5.645 H -2.335 V 0 Z m -1.799,-2.391 h 1.583 c 0.432,0 0.872,0 1.175,0.256 0.185,0.153 0.32,0.408 0.32,0.737 0,0.32 -0.135,0.56 -0.328,0.703 -0.28,0.216 -0.671,0.216 -1.071,0.216 h -1.679 z m 0,-2.765 h 1.431 c 0.376,0 0.552,0 0.688,0.008 0.72,0.031 1.167,0.392 1.167,1.08 0,0.886 -0.776,1.111 -0.887,1.134 -0.248,0.073 -0.528,0.073 -0.84,0.08 h -1.559 z"
         style="fill:#1776b7;fill-opacity:1;fill-rule:nonzero;stroke:none"
         id="path22985"
         inkscape:connector-curvature="0" />
    </g>
    <g
       id="g22987"
       transform="matrix(0.35277777,0,0,-0.35277777,106.47179,141.28943)"
       style="fill:#1776b7;fill-opacity:1">
      <path
         d="M 0,0 H -0.464 V 3.814 H 0 V 3.207 c 0.24,0.504 0.64,0.672 1.111,0.672 0.113,0 0.168,-0.008 0.264,-0.026 V 3.43 C 1.231,3.455 1.215,3.455 1.087,3.455 0.959,3.455 0.584,3.447 0.304,3.15 0.008,2.822 0.008,2.432 0,1.648 Z"
         style="fill:#1776b7;fill-opacity:1;fill-rule:nonzero;stroke:none"
         id="path22989"
         inkscape:connector-curvature="0" />
    </g>
    <g
       id="g22991"
       transform="matrix(0.35277777,0,0,-0.35277777,108.33971,141.28943)"
       style="fill:#1776b7;fill-opacity:1">
      <path
         d="m 0,0 c -0.576,0 -0.983,0.049 -1.023,0.633 v 0.07 C -1.04,0.672 -1.047,0.648 -1.056,0.625 -1.279,0.16 -1.831,-0.08 -2.383,-0.08 c -0.943,0 -1.199,0.641 -1.199,1.039 0,0.881 0.903,1.088 2.103,1.369 l 0.456,0.104 v 0.191 c 0,0.272 0,0.879 -0.928,0.879 -0.936,0 -0.991,-0.527 -0.999,-0.928 l -0.52,0.088 c 0.032,0.193 0.072,0.434 0.224,0.656 0.271,0.432 0.759,0.592 1.279,0.592 0.464,0 1.167,-0.119 1.343,-0.744 0.048,-0.184 0.048,-0.359 0.048,-0.734 V 1.199 C -0.576,0.527 -0.568,0.369 0,0.377 Z M -1.023,2.016 -1.263,1.959 C -1.791,1.816 -2.007,1.76 -2.207,1.703 -2.639,1.584 -3.118,1.439 -3.118,0.969 c 0,-0.305 0.223,-0.633 0.759,-0.633 0.36,0 0.768,0.168 1.016,0.416 0.296,0.297 0.312,0.6 0.32,0.984 z"
         style="fill:#1776b7;fill-opacity:1;fill-rule:nonzero;stroke:none"
         id="path22993"
         inkscape:connector-curvature="0" />
    </g>
    <g
       id="g22995"
       transform="matrix(0.35277777,0,0,-0.35277777,110.29241,141.28943)"
       style="fill:#1776b7;fill-opacity:1">
      <path
         d="m 0,0 h -0.472 v 2.063 c 0,0.712 0,0.927 -0.136,1.128 -0.128,0.192 -0.36,0.272 -0.592,0.272 -0.751,0 -0.959,-0.744 -0.991,-0.904 C -2.239,2.336 -2.247,2.096 -2.247,1.584 V 0 h -0.464 v 2.111 c -0.008,0.401 -0.008,0.551 -0.032,0.719 -0.016,0.121 -0.088,0.633 -0.711,0.633 -0.328,0 -0.648,-0.16 -0.84,-0.512 C -4.486,2.6 -4.486,2.215 -4.486,1.527 V 0 h -0.472 v 3.807 h 0.472 V 3.023 c 0.216,0.864 0.976,0.872 1.128,0.872 0.431,0 0.999,-0.209 1.055,-0.952 0.024,0.104 0.072,0.28 0.192,0.455 0.24,0.36 0.616,0.497 0.991,0.497 0.456,0 0.728,-0.184 0.872,-0.36 C -0.008,3.223 -0.008,2.814 0,1.879 Z"
         style="fill:#1776b7;fill-opacity:1;fill-rule:nonzero;stroke:none"
         id="path22997"
         inkscape:connector-curvature="0" />
    </g>
    <g
       id="g22999"
       transform="matrix(0.35277777,0,0,-0.35277777,110.8548,141.28943)"
       style="fill:#1776b7;fill-opacity:1">
      <path
         d="M 0,0 H -0.456 V 5.645 H 0 V 3.158 C 0.288,3.734 0.768,3.895 1.167,3.895 2.191,3.895 2.75,2.943 2.75,1.84 2.75,0.959 2.375,-0.088 1.191,-0.088 0.352,-0.088 0.08,0.496 0,0.68 Z M 1.095,3.471 C 0.936,3.471 0.768,3.43 0.616,3.359 0.128,3.103 0,2.494 0,1.928 0,0.889 0.408,0.336 1.127,0.336 c 0.888,0 1.112,0.783 1.12,1.496 C 2.263,2.83 1.823,3.471 1.095,3.471"
         style="fill:#1776b7;fill-opacity:1;fill-rule:nonzero;stroke:none"
         id="path23001"
         inkscape:connector-curvature="0" />
    </g>
    <path
       d="m 112.1332,141.28933 h 0.16651 v -1.99143 h -0.16651 z"
       style="fill:#1776b7;fill-opacity:1;fill-rule:nonzero;stroke:none;stroke-width:0.35277778"
       id="path23003"
       inkscape:connector-curvature="0" />
    <g
       id="g23013"
       transform="matrix(0.35277777,0,0,-0.35277777,113.83172,140.93394)"
       style="fill:#1776b7;fill-opacity:1">
      <path
         d="m 0,0 c -0.056,-0.137 -0.16,-0.352 -0.36,-0.576 -0.112,-0.119 -0.48,-0.527 -1.303,-0.527 -1.264,0 -1.815,0.966 -1.815,2.031 0,1.263 0.831,1.967 1.759,1.967 1.151,0 1.751,-1.008 1.719,-1.998 h -2.958 c -0.008,-0.202 0.007,-0.497 0.12,-0.793 0.303,-0.784 1.015,-0.784 1.175,-0.784 0.415,0 0.895,0.145 1.223,0.799 z m -0.536,1.279 c -0.04,0.336 -0.144,0.664 -0.4,0.905 -0.16,0.142 -0.416,0.287 -0.791,0.287 -0.656,0 -1.136,-0.463 -1.224,-1.192 z"
         style="fill:#1776b7;fill-opacity:1;fill-rule:nonzero;stroke:none"
         id="path23015"
         inkscape:connector-curvature="0" />
    </g>
    <g
       id="g23017"
       transform="matrix(0.35277777,0,0,-0.35277777,114.68989,140.53082)"
       style="fill:#1776b7;fill-opacity:1">
      <path
         d="m 0,0 c 0.248,-0.062 0.568,-0.143 0.808,-0.406 0.168,-0.184 0.255,-0.424 0.255,-0.672 0,-0.561 -0.439,-1.168 -1.431,-1.168 -0.488,0 -0.799,0.16 -0.959,0.271 -0.272,0.184 -0.44,0.424 -0.576,0.752 l 0.464,0.161 c 0.088,-0.344 0.416,-0.76 1.071,-0.76 0.656,0 0.968,0.351 0.968,0.752 0,0.496 -0.503,0.615 -0.816,0.679 -0.144,0.032 -0.304,0.065 -0.455,0.096 -0.352,0.08 -0.992,0.24 -0.992,0.984 0,0.391 0.224,1.063 1.367,1.063 0.376,0 0.68,-0.088 0.888,-0.217 C 0.936,1.328 1.031,1.008 1.063,0.889 L 0.608,0.777 C 0.584,0.881 0.536,1.064 0.28,1.209 c -0.16,0.096 -0.376,0.135 -0.6,0.135 -0.288,0 -0.879,-0.073 -0.879,-0.639 0,-0.416 0.375,-0.519 0.799,-0.617 z"
         style="fill:#1776b7;fill-opacity:1;fill-rule:nonzero;stroke:none"
         id="path23019"
         inkscape:connector-curvature="0" />
    </g>
    <g
       id="g23021"
       transform="matrix(0.35277777,0,0,-0.35277777,117.67266,140.85467)"
       style="fill:#1776b7;fill-opacity:1">
      <path
         d="m 0,0 c -0.544,-1.199 -1.392,-1.375 -2.096,-1.375 -0.391,0 -1.215,0.055 -1.806,0.75 -0.424,0.496 -0.656,1.297 -0.656,2.176 0,1.199 0.432,3.006 2.414,3.006 1.52,0 1.936,-0.92 2.183,-1.463 L -0.496,2.815 c -0.105,0.462 -0.368,0.806 -0.6,0.982 -0.376,0.279 -0.823,0.289 -1.023,0.289 -0.608,0 -1.031,-0.176 -1.392,-0.664 -0.391,-0.535 -0.487,-1.184 -0.487,-1.791 0,-0.385 0.048,-1.303 0.472,-1.863 0.439,-0.6 1.095,-0.664 1.495,-0.664 0.271,0 0.592,0.033 0.887,0.24 0.2,0.137 0.512,0.463 0.648,0.959 z"
         style="fill:#1776b7;fill-opacity:1;fill-rule:nonzero;stroke:none"
         id="path23023"
         inkscape:connector-curvature="0" />
    </g>
    <g
       id="g23025"
       transform="matrix(0.35277777,0,0,-0.35277777,118.50842,141.32319)"
       style="fill:#1776b7;fill-opacity:1">
      <path
         d="m 0,0 c -1.111,0 -1.719,0.879 -1.719,1.951 0,0.992 0.503,2.047 1.735,2.047 1.208,0 1.719,-0.992 1.727,-1.975 C 1.751,0.863 1.079,0 0,0 m 0.023,3.598 c -0.335,0 -0.663,-0.135 -0.878,-0.391 -0.329,-0.385 -0.361,-0.951 -0.361,-1.264 0,-1.088 0.56,-1.527 1.216,-1.527 0.84,0 1.231,0.664 1.239,1.551 0,0.217 0.016,1.631 -1.216,1.631"
         style="fill:#1776b7;fill-opacity:1;fill-rule:nonzero;stroke:none"
         id="path23027"
         inkscape:connector-curvature="0" />
    </g>
    <g
       id="g23029"
       transform="matrix(0.35277777,0,0,-0.35277777,121.18043,141.28943)"
       style="fill:#1776b7;fill-opacity:1">
      <path
         d="m 0,0 h -0.472 v 2.063 c 0,0.712 0,0.927 -0.135,1.128 -0.128,0.192 -0.361,0.272 -0.592,0.272 -0.752,0 -0.96,-0.744 -0.991,-0.904 C -2.238,2.336 -2.247,2.096 -2.247,1.584 V 0 H -2.71 V 2.111 C -2.719,2.512 -2.719,2.662 -2.742,2.83 -2.759,2.951 -2.83,3.463 -3.454,3.463 -3.782,3.463 -4.102,3.303 -4.294,2.951 -4.485,2.6 -4.485,2.215 -4.485,1.527 V 0 h -0.472 v 3.807 h 0.472 V 3.023 c 0.216,0.864 0.975,0.872 1.127,0.872 0.431,0 1,-0.209 1.055,-0.952 0.025,0.104 0.073,0.28 0.193,0.455 0.239,0.36 0.615,0.497 0.991,0.497 0.456,0 0.727,-0.184 0.871,-0.36 C -0.008,3.223 -0.008,2.814 0,1.879 Z"
         style="fill:#1776b7;fill-opacity:1;fill-rule:nonzero;stroke:none"
         id="path23031"
         inkscape:connector-curvature="0" />
    </g>
    <g
       id="g23033"
       transform="matrix(0.35277777,0,0,-0.35277777,121.58214,139.94376)"
       style="fill:#1776b7;fill-opacity:1">
      <path
         d="m 0,0 h 0.464 v -0.623 c 0.056,0.127 0.096,0.215 0.231,0.352 0.241,0.24 0.576,0.351 0.92,0.351 1.239,0 1.591,-1.207 1.591,-2 0,-1.031 -0.56,-1.982 -1.583,-1.982 -0.487,0 -0.943,0.216 -1.159,0.72 V -5.836 H 0 Z m 0.52,-2.623 c 0.16,-0.615 0.591,-0.832 1.015,-0.832 0.928,0 1.184,0.961 1.184,1.592 0,0.824 -0.376,1.511 -1.184,1.511 -1.031,0 -1.063,-1.152 -1.071,-1.503 C 0.456,-2.127 0.456,-2.383 0.52,-2.623"
         style="fill:#1776b7;fill-opacity:1;fill-rule:nonzero;stroke:none"
         id="path23035"
         inkscape:connector-curvature="0" />
    </g>
    <g
       id="g23037"
       transform="matrix(0.35277777,0,0,-0.35277777,124.20042,141.28943)"
       style="fill:#1776b7;fill-opacity:1">
      <path
         d="m 0,0 c -0.575,0 -0.983,0.049 -1.023,0.633 v 0.07 C -1.039,0.672 -1.047,0.648 -1.056,0.625 -1.279,0.16 -1.831,-0.08 -2.383,-0.08 c -0.943,0 -1.199,0.641 -1.199,1.039 0,0.881 0.903,1.088 2.103,1.369 l 0.456,0.104 v 0.191 c 0,0.272 0,0.879 -0.928,0.879 -0.935,0 -0.991,-0.527 -0.999,-0.928 l -0.52,0.088 c 0.032,0.193 0.073,0.434 0.224,0.656 0.271,0.432 0.76,0.592 1.279,0.592 0.464,0 1.167,-0.119 1.344,-0.744 0.048,-0.184 0.048,-0.359 0.048,-0.734 V 1.199 C -0.575,0.527 -0.567,0.369 0,0.377 Z M -1.023,2.016 -1.263,1.959 C -1.791,1.816 -2.007,1.76 -2.207,1.703 -2.639,1.584 -3.118,1.439 -3.118,0.969 c 0,-0.305 0.223,-0.633 0.76,-0.633 0.359,0 0.767,0.168 1.015,0.416 0.296,0.297 0.312,0.6 0.32,0.984 z"
         style="fill:#1776b7;fill-opacity:1;fill-rule:nonzero;stroke:none"
         id="path23039"
         inkscape:connector-curvature="0" />
    </g>
    <g
       id="g23041"
       transform="matrix(0.35277777,0,0,-0.35277777,125.44788,141.28943)"
       style="fill:#1776b7;fill-opacity:1">
      <path
         d="m 0,0 h -0.472 v 1.975 c 0,0.744 0,0.961 -0.143,1.168 -0.096,0.136 -0.321,0.328 -0.744,0.328 -0.432,0 -0.688,-0.168 -0.887,-0.432 -0.24,-0.32 -0.24,-0.568 -0.24,-1.367 V 0 h -0.472 v 3.807 h 0.472 v -0.68 c 0.128,0.383 0.511,0.768 1.191,0.768 0.208,0 0.712,-0.024 1.039,-0.456 C -0.008,3.111 0,2.799 0,1.975 Z"
         style="fill:#1776b7;fill-opacity:1;fill-rule:nonzero;stroke:none"
         id="path23043"
         inkscape:connector-curvature="0" />
    </g>
    <g
       id="g23045"
       transform="matrix(0.35277777,0,0,-0.35277777,126.83938,139.94376)"
       style="fill:#1776b7;fill-opacity:1">
      <path
         d="m 0,0 -1.719,-4.365 c -0.288,-0.713 -0.32,-0.793 -0.4,-0.944 -0.176,-0.296 -0.367,-0.431 -0.703,-0.431 -0.265,0 -0.432,0.095 -0.512,0.15 v 0.481 c 0.224,-0.161 0.399,-0.192 0.495,-0.192 0.233,0 0.336,0.119 0.472,0.455 0.032,0.073 0.168,0.409 0.2,0.481 l 0.2,0.551 L -3.286,0 h 0.455 L -1.719,-3.246 -0.479,0 Z"
         style="fill:#1776b7;fill-opacity:1;fill-rule:nonzero;stroke:none"
         id="path23047"
         inkscape:connector-curvature="0" />
    </g>
  </g>
</svg>
