<svg xmlns="http://www.w3.org/2000/svg" version="1.0" preserveAspectRatio="xMidYMid meet" viewBox="280.36 570.14 3154.51 2089.54">
<g transform="translate(0.000000,3308.000000) scale(0.100000,-0.100000)" stroke="none">
<path d="M33850 27366 c-76 -17 -122 -39 -196 -91 -159 -114 -265 -321 -266 -521 -2 -201 85 -354 239 -427 281 -131 629 102 709 473 58 271 -87 525 -325 570 -66 12 -91 12 -161 -4z m225 -113 c53 -28 120 -101 147 -161 30 -66 37 -236 13 -318 -54 -187 -195 -337 -359 -380 -64 -17 -98 -17 -164 -1 -173 45 -267 245 -221 469 15 72 80 203 128 259 50 58 135 116 203 141 71 25 195 21 253 -9z"/>
<path d="M33870 27136 c-140 -59 -199 -91 -200 -108 0 -10 7 -18 15 -18 31 0 36 -38 33 -250 -3 -181 -5 -210 -20 -227 -10 -11 -18 -27 -18 -36 0 -14 17 -9 90 28 86 43 108 66 75 79 -13 5 -15 25 -13 118 l3 113 30 3 c58 6 70 -15 73 -127 2 -56 6 -101 8 -101 3 0 36 16 74 35 64 32 92 65 55 65 -22 0 -35 33 -35 89 0 42 -4 53 -26 70 -15 12 -33 21 -40 21 -8 0 4 18 25 39 64 64 68 156 10 205 -38 32 -68 32 -139 2z m54 -72 c20 -20 20 -76 1 -115 -14 -27 -68 -69 -87 -69 -14 0 -9 188 5 193 26 11 66 6 81 -9z"/>
<path d="M32853 26059 c-368 -43 -750 -212 -1023 -452 -192 -169 -340 -395 -424 -647 -110 -332 -122 -731 -31 -1051 113 -395 382 -720 900 -1086 209 -148 340 -257 490 -407 321 -323 448 -607 447 -1001 -1 -448 -163 -765 -467 -915 -110 -55 -180 -71 -322 -77 -150 -7 -241 11 -352 68 -134 69 -235 177 -301 322 -134 297 -104 816 66 1125 61 112 158 225 237 277 l27 17 0 145 0 145 -27 -7 c-94 -23 -320 -159 -430 -258 -237 -213 -385 -464 -460 -777 -33 -142 -43 -408 -19 -552 44 -268 161 -485 340 -627 134 -106 259 -164 450 -209 97 -22 133 -26 291 -26 148 0 200 4 293 22 270 54 497 160 732 341 242 187 413 398 545 675 134 278 191 521 202 861 17 530 -120 924 -459 1320 -181 211 -378 380 -778 665 -476 339 -640 517 -715 774 -61 214 -35 461 67 634 108 183 329 301 543 290 110 -6 193 -41 274 -114 176 -158 274 -451 288 -851 3 -95 10 -173 14 -173 5 0 70 30 144 67 l135 68 -2 684 -3 685 -50 13 c-146 38 -440 53 -622 32z"/>
<path d="M29930 24680 c-192 -24 -416 -115 -628 -257 -632 -423 -1040 -1233 -1206 -2393 -56 -390 -79 -746 -79 -1220 0 -447 20 -693 83 -1010 92 -463 251 -803 480 -1030 113 -112 213 -175 350 -221 80 -27 114 -33 215 -37 67 -2 154 1 195 7 174 27 406 129 590 259 115 81 301 264 392 386 273 365 452 862 527 1461 25 195 37 405 25 405 -5 0 -72 -31 -149 -68 l-140 -69 -13 -123 c-77 -724 -394 -1400 -734 -1564 -253 -122 -459 -74 -598 138 -186 286 -280 860 -280 1711 l0 220 778 380 c427 208 873 426 990 484 l212 104 1 176 c3 577 -5 780 -41 1068 -49 382 -147 685 -285 879 -163 229 -421 347 -685 314z m-71 -527 c142 -89 233 -389 271 -898 14 -189 25 -818 15 -929 l-7 -88 -327 -160 c-672 -330 -834 -408 -839 -404 -6 7 16 464 34 696 59 770 180 1292 363 1567 77 115 208 217 314 244 54 14 127 2 176 -28z"/>
<path d="M26470 23040 c-158 -42 -336 -150 -487 -293 -207 -199 -346 -436 -469 -802 l-54 -160 0 338 c0 185 -3 337 -7 337 -5 0 -286 -136 -625 -302 l-618 -302 0 -120 0 -121 104 0 c127 0 146 -10 194 -105 33 -67 52 -142 74 -290 16 -118 24 -5043 8 -5300 -28 -442 -96 -668 -252 -835 l-70 -75 -1 -115 c0 -63 1 -117 4 -119 2 -2 153 69 334 158 182 88 462 225 623 303 l292 142 0 1043 0 1043 32 -55 c101 -178 262 -317 428 -372 99 -32 281 -37 390 -9 101 25 265 102 378 177 158 106 343 302 457 485 275 442 430 1018 501 1864 21 248 30 1011 15 1286 -52 942 -224 1581 -524 1938 -97 115 -236 214 -357 253 -96 31 -270 35 -370 8z m-135 -778 c61 -31 138 -119 185 -212 164 -327 240 -923 240 -1895 0 -1758 -236 -2715 -669 -2715 -205 0 -354 207 -446 619 -121 539 -160 1633 -90 2514 77 965 293 1595 582 1703 51 19 148 12 198 -14z"/>
<path d="M23055 21351 c-204 -33 -437 -169 -618 -361 -183 -195 -309 -422 -423 -765 l-43 -130 -1 333 c0 182 -2 332 -4 332 -2 0 -284 -137 -627 -305 l-624 -305 0 -121 0 -122 90 2 c103 2 136 -7 183 -52 67 -65 97 -199 113 -512 15 -306 7 -5078 -9 -5235 -41 -391 -106 -580 -253 -735 l-69 -72 0 -117 c0 -64 4 -116 9 -116 9 0 1229 595 1238 604 4 3 6 474 6 1046 l0 1039 50 -80 c201 -328 539 -455 882 -332 328 118 614 377 814 737 312 563 471 1416 471 2531 0 1469 -282 2409 -800 2670 -114 58 -269 84 -385 66z m-220 -794 c228 -107 362 -560 417 -1412 15 -241 15 -1145 -1 -1440 -48 -913 -166 -1498 -361 -1785 -114 -167 -265 -225 -412 -158 -235 108 -363 514 -429 1363 -17 222 -23 1106 -10 1391 48 1014 214 1700 474 1967 93 95 216 123 322 74z"/>
<path d="M19620 19653 c-287 -50 -614 -230 -873 -482 -658 -637 -1006 -1811 -1007 -3393 0 -460 35 -801 116 -1135 153 -632 449 -1026 849 -1134 115 -31 306 -31 429 -1 348 87 672 311 915 637 95 127 149 218 229 385 184 383 287 818 328 1388 3 50 4 92 1 92 -3 0 -70 -32 -150 -71 l-146 -71 -6 -66 c-63 -629 -292 -1225 -577 -1497 -147 -141 -324 -209 -480 -184 -179 29 -307 176 -403 463 -101 301 -144 659 -151 1271 l-5 400 253 123 c139 67 444 216 678 330 234 114 563 275 732 357 301 147 308 151 314 184 12 62 -4 878 -20 1036 -49 480 -136 794 -281 1020 -112 175 -286 303 -463 341 -62 13 -225 17 -282 7z m-54 -514 c162 -78 258 -398 294 -979 5 -91 10 -341 10 -556 l0 -391 -87 -41 c-49 -22 -309 -149 -580 -281 -271 -133 -495 -241 -499 -241 -9 0 3 353 22 620 56 801 181 1364 364 1637 42 61 123 147 176 184 100 69 218 88 300 48z"/>
<path d="M17233 18447 l-642 -312 -1 -122 c0 -68 3 -123 6 -123 3 0 36 5 74 11 153 23 247 -31 290 -168 27 -84 38 -314 22 -473 -6 -58 -113 -824 -239 -1704 -159 -1112 -230 -1589 -236 -1570 -4 16 -145 877 -312 1913 -168 1036 -306 1885 -307 1886 -2 2 -110 -49 -240 -112 l-237 -115 -5 -37 c-3 -20 -24 -182 -46 -361 -23 -179 -59 -462 -80 -630 -21 -168 -57 -451 -80 -630 -23 -179 -59 -462 -80 -630 -21 -168 -89 -699 -149 -1180 -114 -900 -121 -952 -127 -935 -4 11 -275 1580 -403 2330 -99 582 -111 671 -111 846 0 272 59 418 216 539 l54 42 0 119 c0 77 -4 119 -11 119 -5 0 -338 -160 -740 -356 l-729 -357 0 -123 0 -123 53 6 c98 10 154 -37 210 -177 54 -137 66 -198 276 -1395 473 -2689 602 -3420 606 -3424 4 -4 201 90 668 319 l92 45 225 1662 c124 915 226 1659 227 1655 2 -4 104 -650 228 -1436 124 -787 227 -1431 229 -1433 1 -2 172 79 379 179 326 159 377 186 382 208 3 14 52 340 110 725 311 2060 472 3151 560 3780 122 869 182 1155 288 1359 40 77 134 187 200 232 l28 19 -3 122 -3 123 -642 -313z"/>
<path d="M10435 16775 l-660 -324 -3 -125 -3 -124 60 5 c155 14 248 -57 304 -232 27 -82 46 -230 57 -430 12 -224 11 -4929 -1 -5250 -18 -513 -84 -752 -254 -933 l-76 -80 3 -119 3 -119 790 386 790 386 3 125 3 126 -55 -5 c-173 -14 -240 116 -266 523 -13 207 -13 2268 0 2520 26 493 75 863 160 1210 94 383 224 676 369 828 150 159 314 138 399 -53 28 -63 65 -222 83 -355 10 -68 13 -628 16 -2327 2 -1231 5 -2238 8 -2238 2 0 217 104 477 231 260 127 562 274 671 326 l197 96 0 121 0 121 -82 0 c-67 0 -91 5 -126 23 -116 62 -177 245 -202 617 -6 89 -10 714 -10 1545 0 767 -5 1473 -10 1568 -24 433 -80 706 -188 917 -60 117 -184 246 -282 294 -289 140 -633 24 -970 -326 -203 -210 -361 -477 -481 -813 l-38 -105 0 1158 c-1 919 -4 1157 -13 1156 -7 -1 -310 -147 -673 -324z"/>
<path d="M5155 15075 c-358 -45 -666 -164 -981 -376 -362 -244 -641 -583 -808 -982 -136 -325 -198 -652 -198 -1052 0 -403 65 -711 217 -1020 204 -414 523 -757 1145 -1225 279 -210 420 -330 581 -490 499 -499 696 -996 658 -1668 -46 -809 -515 -1342 -1181 -1342 -278 0 -510 94 -695 282 -97 97 -135 152 -199 283 -58 121 -96 239 -122 385 -24 136 -23 530 2 690 61 394 196 682 424 901 82 80 130 117 264 204 23 14 36 325 15 325 -8 0 -68 -18 -133 -41 -556 -192 -984 -591 -1195 -1116 -204 -505 -192 -1128 28 -1567 389 -776 1380 -1008 2328 -547 524 256 915 689 1150 1276 154 383 225 782 225 1265 0 841 -174 1422 -580 1930 -107 133 -349 376 -506 507 -67 55 -256 202 -420 326 -366 276 -464 356 -624 517 -175 174 -288 327 -366 495 -211 459 -118 1031 211 1298 80 65 220 132 330 158 76 18 111 20 220 16 113 -4 141 -8 211 -34 389 -145 599 -588 639 -1350 4 -73 10 -133 14 -133 3 0 70 31 149 70 l142 69 0 920 0 920 -29 16 c-42 21 -186 62 -288 81 -122 22 -482 28 -628 9z"/>
<path d="M9090 14460 c-269 -33 -472 -106 -724 -258 -423 -257 -737 -601 -970 -1062 -196 -386 -324 -823 -400 -1360 -98 -690 -98 -1555 0 -2150 91 -554 252 -931 501 -1171 119 -115 218 -175 363 -221 66 -20 95 -23 245 -23 154 0 179 3 265 27 252 70 479 206 675 404 299 300 508 728 624 1279 50 234 98 644 89 751 l-3 41 -145 -71 -145 -72 -12 -120 c-60 -603 -267 -1152 -537 -1425 -76 -77 -141 -120 -231 -156 -59 -22 -85 -27 -165 -27 -136 0 -192 24 -291 123 -64 63 -85 93 -127 181 -106 217 -160 507 -193 1030 -16 242 -16 1113 0 1400 62 1171 250 1889 573 2196 127 120 250 168 370 144 84 -16 131 -41 201 -108 181 -173 292 -516 326 -1010 5 -74 12 -136 14 -138 3 -3 66 25 141 63 l136 68 0 796 0 797 -57 21 c-133 49 -358 71 -523 51z"/>
</g>
</svg>